<mxfile host="Electron" agent="Mozilla/5.0 (Windows NT 10.0; Win64; x64) AppleWebKit/537.36 (KHTML, like Gecko) draw.io/24.7.17 Chrome/128.0.6613.36 Electron/32.0.1 Safari/537.36" version="24.7.17">
  <diagram name="Page-1" id="YXr7-WJ-Ji2LMrj3evfW">
    <mxGraphModel dx="1668" dy="965" grid="1" gridSize="10" guides="1" tooltips="1" connect="1" arrows="1" fold="1" page="1" pageScale="1" pageWidth="1169" pageHeight="827" math="0" shadow="0">
      <root>
        <mxCell id="0" />
        <mxCell id="1" parent="0" />
        <mxCell id="NgEnrwUll-w-dY8W9-Vq-34" value="" style="rounded=1;whiteSpace=wrap;html=1;" vertex="1" parent="1">
          <mxGeometry x="260" y="61.5" width="860" height="538.5" as="geometry" />
        </mxCell>
        <mxCell id="NgEnrwUll-w-dY8W9-Vq-1" value="BACKEND" style="text;html=1;align=center;verticalAlign=middle;whiteSpace=wrap;rounded=0;" vertex="1" parent="1">
          <mxGeometry x="350" y="66.5" width="60" height="30" as="geometry" />
        </mxCell>
        <mxCell id="NgEnrwUll-w-dY8W9-Vq-2" value="NodeJS" style="outlineConnect=0;dashed=0;verticalLabelPosition=bottom;verticalAlign=top;align=center;html=1;shape=mxgraph.aws3.android;fillColor=#8CC64F;gradientColor=none;" vertex="1" parent="1">
          <mxGeometry x="300" y="70" width="40" height="40" as="geometry" />
        </mxCell>
        <mxCell id="NgEnrwUll-w-dY8W9-Vq-11" value="" style="group" vertex="1" connectable="0" parent="1">
          <mxGeometry x="440" y="210" width="196.5" height="110" as="geometry" />
        </mxCell>
        <mxCell id="NgEnrwUll-w-dY8W9-Vq-6" value="&lt;i&gt;routes/routes.js&lt;/i&gt;" style="sketch=0;aspect=fixed;pointerEvents=1;shadow=0;dashed=0;html=1;strokeColor=none;labelPosition=center;verticalLabelPosition=bottom;verticalAlign=top;align=center;fillColor=#00188D;shape=mxgraph.azure.file" vertex="1" parent="NgEnrwUll-w-dY8W9-Vq-11">
          <mxGeometry x="70" width="47" height="50" as="geometry" />
        </mxCell>
        <mxCell id="NgEnrwUll-w-dY8W9-Vq-7" value="Fichier qui contient la &lt;b&gt;définition des routes de l&#39;application&lt;/b&gt;" style="text;html=1;align=center;verticalAlign=middle;whiteSpace=wrap;rounded=0;" vertex="1" parent="NgEnrwUll-w-dY8W9-Vq-11">
          <mxGeometry y="80" width="196.5" height="30" as="geometry" />
        </mxCell>
        <mxCell id="NgEnrwUll-w-dY8W9-Vq-13" value="" style="group" vertex="1" connectable="0" parent="1">
          <mxGeometry x="250" y="220" width="180" height="100" as="geometry" />
        </mxCell>
        <mxCell id="NgEnrwUll-w-dY8W9-Vq-9" value="&lt;i&gt;index.js&lt;/i&gt;" style="sketch=0;aspect=fixed;pointerEvents=1;shadow=0;dashed=0;html=1;strokeColor=none;labelPosition=center;verticalLabelPosition=bottom;verticalAlign=top;align=center;fillColor=#00188D;shape=mxgraph.azure.file" vertex="1" parent="NgEnrwUll-w-dY8W9-Vq-13">
          <mxGeometry x="66.5" width="47" height="50" as="geometry" />
        </mxCell>
        <mxCell id="NgEnrwUll-w-dY8W9-Vq-12" value="Fichier d&#39;entrée du programme" style="text;html=1;align=center;verticalAlign=middle;whiteSpace=wrap;rounded=0;" vertex="1" parent="NgEnrwUll-w-dY8W9-Vq-13">
          <mxGeometry y="70" width="180" height="30" as="geometry" />
        </mxCell>
        <mxCell id="NgEnrwUll-w-dY8W9-Vq-14" value="Controllers" style="sketch=0;outlineConnect=0;fontColor=#232F3E;gradientColor=none;fillColor=#7AA116;strokeColor=none;dashed=0;verticalLabelPosition=bottom;verticalAlign=top;align=center;html=1;fontSize=12;fontStyle=0;aspect=fixed;pointerEvents=1;shape=mxgraph.aws4.file_system;" vertex="1" parent="1">
          <mxGeometry x="670" y="90" width="78" height="73" as="geometry" />
        </mxCell>
        <mxCell id="NgEnrwUll-w-dY8W9-Vq-31" style="edgeStyle=orthogonalEdgeStyle;rounded=0;orthogonalLoop=1;jettySize=auto;html=1;" edge="1" parent="1" source="NgEnrwUll-w-dY8W9-Vq-15" target="NgEnrwUll-w-dY8W9-Vq-20">
          <mxGeometry relative="1" as="geometry">
            <Array as="points">
              <mxPoint x="840" y="220" />
              <mxPoint x="709" y="220" />
            </Array>
          </mxGeometry>
        </mxCell>
        <mxCell id="NgEnrwUll-w-dY8W9-Vq-15" value="womanContoller.js" style="sketch=0;aspect=fixed;pointerEvents=1;shadow=0;dashed=0;html=1;strokeColor=none;labelPosition=center;verticalLabelPosition=bottom;verticalAlign=top;align=center;fillColor=#00188D;shape=mxgraph.azure.code_file" vertex="1" parent="1">
          <mxGeometry x="816.5" y="101.5" width="47" height="50" as="geometry" />
        </mxCell>
        <mxCell id="NgEnrwUll-w-dY8W9-Vq-32" style="edgeStyle=orthogonalEdgeStyle;rounded=0;orthogonalLoop=1;jettySize=auto;html=1;" edge="1" parent="1" source="NgEnrwUll-w-dY8W9-Vq-19" target="NgEnrwUll-w-dY8W9-Vq-24">
          <mxGeometry relative="1" as="geometry">
            <Array as="points">
              <mxPoint x="840" y="430" />
              <mxPoint x="709" y="430" />
            </Array>
          </mxGeometry>
        </mxCell>
        <mxCell id="NgEnrwUll-w-dY8W9-Vq-19" value="womanModels.js" style="verticalLabelPosition=bottom;html=1;verticalAlign=top;align=center;strokeColor=none;fillColor=#00BEF2;shape=mxgraph.azure.sql_reporting;" vertex="1" parent="1">
          <mxGeometry x="820" y="331.5" width="40" height="50" as="geometry" />
        </mxCell>
        <mxCell id="NgEnrwUll-w-dY8W9-Vq-20" value="Models" style="sketch=0;outlineConnect=0;fontColor=#232F3E;gradientColor=none;fillColor=#7AA116;strokeColor=none;dashed=0;verticalLabelPosition=bottom;verticalAlign=top;align=center;html=1;fontSize=12;fontStyle=0;aspect=fixed;pointerEvents=1;shape=mxgraph.aws4.file_system;" vertex="1" parent="1">
          <mxGeometry x="670" y="320" width="78" height="73" as="geometry" />
        </mxCell>
        <mxCell id="NgEnrwUll-w-dY8W9-Vq-23" value="&lt;p style=&quot;margin:0px;margin-top:4px;text-align:center;&quot;&gt;&lt;b&gt;womanModel.js&lt;/b&gt;&lt;/p&gt;&lt;hr size=&quot;1&quot; style=&quot;border-style:solid;&quot;&gt;&lt;p style=&quot;margin:0px;margin-left:4px;&quot;&gt;import config&lt;/p&gt;&lt;hr size=&quot;1&quot; style=&quot;border-style:solid;&quot;&gt;&lt;p style=&quot;margin:0px;margin-left:4px;&quot;&gt;+ getWomen()&lt;/p&gt;&lt;p style=&quot;margin:0px;margin-left:4px;&quot;&gt;+ getWomanById()&lt;br&gt;&lt;/p&gt;&lt;p style=&quot;margin:0px;margin-left:4px;&quot;&gt;+ insertWoman()&lt;br&gt;&lt;/p&gt;&lt;p style=&quot;margin:0px;margin-left:4px;&quot;&gt;+ updateWomanById()&lt;br&gt;&lt;/p&gt;&lt;p style=&quot;margin:0px;margin-left:4px;&quot;&gt;+ deleteWomanById()&lt;br&gt;&lt;/p&gt;&lt;p style=&quot;margin:0px;margin-left:4px;&quot;&gt;&lt;br&gt;&lt;/p&gt;" style="verticalAlign=top;align=left;overflow=fill;html=1;whiteSpace=wrap;" vertex="1" parent="1">
          <mxGeometry x="920" y="310" width="160" height="136" as="geometry" />
        </mxCell>
        <mxCell id="NgEnrwUll-w-dY8W9-Vq-24" value="Config" style="sketch=0;outlineConnect=0;fontColor=#232F3E;gradientColor=none;fillColor=#7AA116;strokeColor=none;dashed=0;verticalLabelPosition=bottom;verticalAlign=top;align=center;html=1;fontSize=12;fontStyle=0;aspect=fixed;pointerEvents=1;shape=mxgraph.aws4.file_system;" vertex="1" parent="1">
          <mxGeometry x="670" y="500" width="78" height="73" as="geometry" />
        </mxCell>
        <mxCell id="NgEnrwUll-w-dY8W9-Vq-26" value="database.js" style="sketch=0;aspect=fixed;pointerEvents=1;shadow=0;dashed=0;html=1;strokeColor=none;labelPosition=center;verticalLabelPosition=bottom;verticalAlign=top;align=center;fillColor=#00188D;shape=mxgraph.azure.file" vertex="1" parent="1">
          <mxGeometry x="816.5" y="511.5" width="47" height="50" as="geometry" />
        </mxCell>
        <mxCell id="NgEnrwUll-w-dY8W9-Vq-27" style="edgeStyle=orthogonalEdgeStyle;rounded=0;orthogonalLoop=1;jettySize=auto;html=1;entryX=0;entryY=0.5;entryDx=0;entryDy=0;entryPerimeter=0;" edge="1" parent="1" source="NgEnrwUll-w-dY8W9-Vq-24" target="NgEnrwUll-w-dY8W9-Vq-26">
          <mxGeometry relative="1" as="geometry" />
        </mxCell>
        <mxCell id="NgEnrwUll-w-dY8W9-Vq-28" style="edgeStyle=orthogonalEdgeStyle;rounded=0;orthogonalLoop=1;jettySize=auto;html=1;entryX=0;entryY=0.5;entryDx=0;entryDy=0;entryPerimeter=0;" edge="1" parent="1" source="NgEnrwUll-w-dY8W9-Vq-20" target="NgEnrwUll-w-dY8W9-Vq-19">
          <mxGeometry relative="1" as="geometry" />
        </mxCell>
        <mxCell id="NgEnrwUll-w-dY8W9-Vq-29" style="edgeStyle=orthogonalEdgeStyle;rounded=0;orthogonalLoop=1;jettySize=auto;html=1;entryX=0;entryY=0.5;entryDx=0;entryDy=0;entryPerimeter=0;" edge="1" parent="1" source="NgEnrwUll-w-dY8W9-Vq-14" target="NgEnrwUll-w-dY8W9-Vq-15">
          <mxGeometry relative="1" as="geometry">
            <mxPoint x="790" y="150" as="targetPoint" />
          </mxGeometry>
        </mxCell>
        <mxCell id="NgEnrwUll-w-dY8W9-Vq-30" style="edgeStyle=orthogonalEdgeStyle;rounded=0;orthogonalLoop=1;jettySize=auto;html=1;" edge="1" parent="1" source="NgEnrwUll-w-dY8W9-Vq-6" target="NgEnrwUll-w-dY8W9-Vq-14">
          <mxGeometry relative="1" as="geometry">
            <Array as="points">
              <mxPoint x="640" y="235" />
              <mxPoint x="640" y="150" />
            </Array>
          </mxGeometry>
        </mxCell>
        <mxCell id="NgEnrwUll-w-dY8W9-Vq-33" style="edgeStyle=orthogonalEdgeStyle;rounded=0;orthogonalLoop=1;jettySize=auto;html=1;entryX=-0.064;entryY=0.68;entryDx=0;entryDy=0;entryPerimeter=0;" edge="1" parent="1" source="NgEnrwUll-w-dY8W9-Vq-9" target="NgEnrwUll-w-dY8W9-Vq-6">
          <mxGeometry relative="1" as="geometry" />
        </mxCell>
      </root>
    </mxGraphModel>
  </diagram>
</mxfile>
